<svg width="14832" height="2665" viewBox="0 0 14832 2665" fill="none" xmlns="http://www.w3.org/2000/svg">
<path d="M1308 0C1674.91 0 2006.53 151.07 2244.06 394.401C2276.31 427.44 2274.88 479.8 2243.15 513.342L2061.36 705.533C2024.03 744.994 1960.71 742.301 1921.54 704.667C1770.93 559.955 1566.36 471 1341 471C878.185 471 503 846.185 503 1309V1326C503 1788.81 878.185 2164 1341 2164C1539.81 2164 1722.45 2094.76 1866.13 1979.09C2009.59 1853.45 2012.67 1636 2012.67 1636H1382.76C1340.37 1636 1306 1601.63 1306 1559.24C1306 1379.06 1452.06 1233 1632.24 1233H2360C2431.8 1233 2490 1291.2 2490 1363V1636H2490.19C2490.18 1636.09 2468.48 1964.5 2349.51 2097.99C2347.52 2101.53 2345.26 2104.95 2342.72 2108.24C2103.47 2417.14 1728.96 2616 1308 2616C585.612 2616 0 2030.39 0 1308C0 585.612 585.612 0 1308 0Z" fill="white"/>
<path d="M3031 37C3158.03 37 3261 139.975 3261 267V2094.43C3261.47 2130.9 3264.54 2206.01 3281 2256.5C3303.45 2325.35 3373.5 2324.5 3373.5 2433.5C3360.5 2523 3305.5 2590 3149 2585C3148.91 2584.95 3148.81 2584.9 3148.72 2584.84C2948.46 2579.14 2788 2415 2788 2213.36V267C2788 139.975 2890.97 37 3018 37H3031Z" fill="white"/>
<path d="M4574.5 766C5083.43 766 5496 1178.57 5496 1687.5C5496 2196.43 5083.43 2609 4574.5 2609H4509.5C4000.57 2609 3588 2196.43 3588 1687.5C3588 1178.57 4000.57 766 4509.5 766H4574.5ZM4547.5 1199C4276.05 1199 4053 1419.05 4053 1690.5C4053 1961.95 4276.05 2182 4547.5 2182C4818.95 2182 5042 1961.95 5042 1690.5C5042 1419.05 4818.95 1199 4547.5 1199Z" fill="white"/>
<path d="M11264.5 766C11773.4 766 12186 1178.57 12186 1687.5C12186 2196.43 11773.4 2609 11264.5 2609H11199.5C10690.6 2609 10278 2196.43 10278 1687.5C10278 1178.57 10690.6 766 11199.5 766H11264.5ZM11237.5 1199C10966.1 1199 10743 1419.05 10743 1690.5C10743 1961.95 10966.1 2182 11237.5 2182C11508.9 2182 11732 1961.95 11732 1690.5C11732 1419.05 11508.9 1199 11237.5 1199Z" fill="white"/>
<path d="M6443.5 1899.5C6425 1948.5 6401 1949 6385.5 1904.5L6072 922.499C5906.5 609.499 5558.5 836 5631 1047L6106 2393C6244.5 2694 6624.5 2616 6687.5 2371.5L6977.5 1514C6977.5 1514 6985 1492.8 7000.5 1493.5C7011.95 1494.02 7016.18 1502.38 7021.5 1514C7026.82 1525.62 7316 2390 7316 2390C7381.5 2585.5 7735 2720 7895 2386L8365.5 1047C8422.5 705 8000.5 723.5 7938.5 906.499L7630 1889C7609.5 1940 7579.5 1942.5 7559 1889L7254 956.499C7106 634.5 6783.5 797.501 6749.5 956.499L6443.5 1899.5Z" fill="white"/>
<path d="M8625.5 593.5C8650.5 180.5 8961 50.5 9182.5 39.5H10247C10526 87.5 10484 470 10247 481H9345.5C9150.5 497.5 9095.5 645.5 9095.5 730.5V1015.5C9095.5 1099.5 9166 1202.5 9288 1214.5H9987.5C10063.5 1213 10106 1281.5 10106 1325.5V1497C10106 1571.5 10050.5 1635 9983 1635H9282C9191 1635 9095.5 1712.5 9095.5 1808.5V2387C9095.5 2489 9041 2584 8929.5 2584H8779C8682 2586.5 8625.5 2488.5 8625.5 2435.5V593.5Z" fill="white"/>
<path d="M12289 922.5C12261 879.5 12289 858 12362.5 832.5C12426 820 12651 755.5 12823 959L13144 1386C13154.5 1398 13170.5 1408.5 13189.5 1384.5L13506.5 967.5C13593 866 13698 812 13821 812C13944 812 14063.5 898 13944 1056L13443.5 1707C13428.5 1727 13417 1737 13439.5 1762.5C13439.5 1762.5 13611.4 1941.59 13777 1976C13942.6 2010.41 14113 1979.5 14221 1928.5C14329 1877.5 14414.3 1866.46 14454.5 1869.5C14494.7 1872.54 14504.8 1887.17 14545 1891C14585.2 1894.83 14699.5 1856 14822.5 1778.5C14834.5 1830.5 14858.5 2151.5 14694 2365C14529.5 2578.5 14343.4 2653.88 14094.5 2664C13845.6 2674.12 13619.9 2530.95 13499 2441.5C13378.1 2352.05 13230.5 2165.5 13230.5 2165.5C13154 2087.5 13122.5 2113 13072 2180L12821.5 2507C12727 2602 12675 2636 12507 2645.5C12322 2645.5 12256 2570 12322 2493L12892.5 1761.5C12906.5 1741 12902.5 1728 12890 1709.5L12289 922.5Z" fill="white"/>
<path d="M14806 1821C14806 1821 14826.9 2027.5 14740 2206C14653.1 2384.5 14518.5 2463.5 14518.5 2463.5C14540.5 2355.5 14533.5 2317 14533.5 2317C14533.5 2317 14430 2403.5 14318.5 2403.5C14362 2345.5 14376.5 2286.5 14376.5 2286.5C14376.5 2286.5 14255 2327.5 14131 2294.5C14254.5 2201.5 14291.5 2111.5 14291.5 2111.5C14291.5 2111.5 14165.1 2108.6 14102.5 2065.5C14241.5 1994 14257 1904.5 14522.5 1904.5C14484.5 1949.5 14522.5 1938.5 14522.5 1938.5C14522.5 1938.5 14598 1942 14806 1821Z" fill="#DDDDDD"/>
<path d="M14433 305C14439.9 305 14446 309.744 14447.7 316.476C14452.9 337.069 14459.7 357.213 14468.1 376.715C14490 427.721 14520.1 472.362 14558.4 510.606C14596.7 548.861 14641.3 578.985 14692.3 600.938C14711.8 609.334 14731.9 616.153 14752.5 621.331C14759.3 623.024 14764 629.063 14764 636C14764 642.937 14759.3 648.986 14752.5 650.68C14731.9 655.855 14711.8 662.674 14692.3 671.072C14641.3 693.025 14596.6 723.149 14558.4 761.394C14520.1 799.659 14490 844.289 14468.1 895.285C14459.7 914.791 14452.9 934.938 14447.7 955.534C14446.8 958.805 14445 961.71 14442.3 963.787C14439.6 965.864 14436.4 966.994 14433 967C14426.1 967 14420 962.267 14418.3 955.524C14413.2 934.931 14406.3 914.787 14397.9 895.285C14376 844.279 14345.9 799.648 14307.6 761.394C14269.4 723.149 14224.7 693.025 14173.7 671.072C14154.2 662.673 14134.1 655.851 14113.5 650.669C14110.2 649.852 14107.3 647.966 14105.2 645.311C14103.1 642.655 14102 639.382 14102 636.01C14102 629.073 14106.7 623.034 14113.5 621.341C14134.1 616.162 14154.2 609.34 14173.7 600.938C14224.7 578.995 14269.4 548.871 14307.6 510.616C14345.9 472.372 14376 427.731 14397.9 376.725C14406.3 357.222 14413.2 337.078 14418.3 316.487C14419.1 313.211 14421 310.302 14423.7 308.221C14426.3 306.141 14429.6 305.007 14433 305Z" fill="#FFC138"/>
</svg>
